<svg width="22" height="22" viewBox="0 0 22 22" fill="none" xmlns="http://www.w3.org/2000/svg">
<path d="M16.6512 16.2012C15.9056 16.2012 15.3011 16.8056 15.3011 17.5513C15.3011 18.2969 15.9056 18.9014 16.6512 18.9014C17.3968 18.9014 18.0013 18.2969 18.0013 17.5513C18.0013 16.8056 17.3968 16.2012 16.6512 16.2012ZM16.6512 16.2012H8.38255C7.70588 16.2012 7.13373 15.7002 7.0443 15.0295L5.55661 3.87186C5.46718 3.20112 4.89503 2.7002 4.21836 2.7002H2.7002M5.85042 5.85042L17.2543 4.67071C18.1047 4.58274 18.8217 5.2973 18.7366 6.14799L18.2039 11.4747C18.0889 12.625 17.121 13.501 15.9649 13.501H7.20052M11.7008 8.55062L15.7511 8.10059M9.00065 17.5513C9.00065 18.2969 8.39619 18.9014 7.65055 18.9014C6.90492 18.9014 6.30046 18.2969 6.30046 17.5513C6.30046 16.8056 6.90492 16.2012 7.65055 16.2012C8.39619 16.2012 9.00065 16.8056 9.00065 17.5513Z" stroke="#282930" stroke-width="1.24624" stroke-linecap="round"/>
</svg>
