<svg width="2075" height="536" viewBox="0 0 2075 536" fill="none" xmlns="http://www.w3.org/2000/svg">
<g clip-path="url(#clip0_32_2)">
<path d="M2075 900.338C2072.15 779.079 2042.5 659.61 1987.73 548.753C1932.96 437.898 1854.16 337.824 1755.81 254.247C1657.47 170.671 1541.51 105.227 1414.56 61.6539C1287.6 18.0807 1152.15 -2.76917 1015.92 0.294731C879.681 3.35862 745.345 30.2763 620.574 79.5109C495.803 128.746 383.041 199.332 288.726 287.242C194.411 375.152 120.39 478.663 70.8888 591.864C21.3882 705.066 -2.62279 825.741 0.226959 947L27.3299 946.39C24.5546 828.299 47.9382 710.777 96.1456 600.533C144.353 490.288 216.44 389.483 308.292 303.869C400.143 218.257 509.959 149.514 631.469 101.566C752.981 53.6172 883.807 27.4028 1016.48 24.4189C1149.15 21.4351 1281.07 41.7403 1404.71 84.175C1528.35 126.61 1641.27 190.344 1737.05 271.736C1832.82 353.129 1909.57 450.589 1962.9 558.549C2016.24 666.509 2045.13 782.856 2047.9 900.947L2075 900.338Z" fill="white"/>
</g>
<defs>
<clipPath id="clip0_32_2">
<rect width="2075" height="536" fill="white"/>
</clipPath>
</defs>
</svg>
