<svg width="2075" height="968" viewBox="0 0 2075 968" fill="none" xmlns="http://www.w3.org/2000/svg">
<path d="M2074.68 920.206C2071.83 796.271 2042.18 674.166 1987.42 560.863C1932.66 447.561 1853.87 345.279 1755.54 259.858C1657.21 174.437 1541.27 107.549 1414.34 63.0145C1287.4 18.4797 1151.97 -2.83026 1015.76 0.301254C879.545 3.43276 745.23 30.9444 620.478 81.2655C495.727 131.587 382.982 203.731 288.681 293.581C194.381 383.431 120.371 489.226 70.8779 604.925C21.3849 720.625 -2.62238 843.963 0.226925 967.898L27.3257 967.275C24.5508 846.578 47.9308 726.462 96.1308 613.785C144.331 501.108 216.407 398.078 308.244 310.575C400.081 223.073 509.88 152.813 631.372 103.807C752.865 54.8004 883.671 28.0075 1016.32 24.9578C1148.97 21.9081 1280.87 42.6614 1404.49 86.0326C1528.11 129.404 1641.02 194.544 1736.78 277.733C1832.54 360.922 1909.28 460.532 1962.6 570.875C2015.93 681.217 2044.81 800.132 2047.58 920.829L2074.68 920.206Z" fill="white"/>
</svg>
