<svg width="64" height="64" viewBox="0 0 64 64" fill="none" xmlns="http://www.w3.org/2000/svg">
<rect x="0.75" y="0.75" width="62.5" height="62.5" rx="31.25" stroke="#D2D4D8" stroke-width="1.5"/>
<path fill-rule="evenodd" clip-rule="evenodd" d="M32 23.25C32.4142 23.25 32.75 23.5858 32.75 24V38.1893L36.9697 33.9697C37.2626 33.6768 37.7374 33.6768 38.0303 33.9697C38.3232 34.2626 38.3232 34.7374 38.0303 35.0303L32.6718 40.3889C32.3008 40.7599 31.6992 40.7599 31.3282 40.3889L25.9697 35.0303C25.6768 34.7374 25.6768 34.2626 25.9697 33.9697C26.2626 33.6768 26.7374 33.6768 27.0303 33.9697L31.25 38.1893V24C31.25 23.5858 31.5858 23.25 32 23.25Z" fill="white"/>
</svg>
