<svg width="15" height="12" viewBox="0 0 15 12" fill="none" xmlns="http://www.w3.org/2000/svg">
<path d="M13.8547 4.91671L12.4307 2.55471C12.3265 2.38319 12.18 2.24128 12.0053 2.14253C11.8306 2.04379 11.6334 1.99151 11.4327 1.99071H10.3147V1.82471C10.3147 1.58498 10.2674 1.34761 10.1754 1.12623C10.0834 0.904857 9.94862 0.703832 9.77872 0.534707C9.43527 0.192476 8.97023 0.00023054 8.48538 3.98869e-05H1.83005C1.46782 -0.00235776 1.11312 0.103388 0.811343 0.303743C0.509563 0.504099 0.274435 0.789948 0.136051 1.12471C0.0444898 1.34664 -0.00175081 1.58464 5.06826e-05 1.82471V7.79671C0.00042616 8.07718 0.102411 8.34803 0.287124 8.55909C0.471836 8.77016 0.726766 8.90715 1.00472 8.94471C1.00161 9.00471 1.00161 9.06449 1.00472 9.12404C1.00235 9.40679 1.0571 9.68711 1.1657 9.94819C1.2743 10.2093 1.43451 10.4457 1.63672 10.6434C1.83514 10.8499 2.07265 11.0149 2.33543 11.1288C2.59821 11.2427 2.88101 11.3031 3.16738 11.3067C3.73894 11.3015 4.28575 11.0727 4.69072 10.6694C5.09531 10.2666 5.32521 9.72088 5.33072 9.15004C5.33414 9.09498 5.33414 9.03976 5.33072 8.98471H9.00338C8.99996 9.03976 8.99996 9.09498 9.00338 9.15004C9.00092 9.43291 9.05564 9.71335 9.16424 9.97455C9.27284 10.2357 9.4331 10.4723 9.63538 10.67C9.83396 10.8767 10.0717 11.0418 10.3347 11.1557C10.5977 11.2696 10.8808 11.33 11.1674 11.3334C11.7389 11.3282 12.2858 11.0994 12.6907 10.696C13.0951 10.2932 13.3247 9.74746 13.3301 9.17671C13.3335 9.12143 13.3335 9.06599 13.3301 9.01071H13.8341C13.9656 9.00883 14.0912 8.95589 14.1844 8.86308C14.2775 8.77027 14.331 8.64487 14.3334 8.51337V6.59604C14.3334 6.00271 14.1674 5.42137 13.8547 4.91671ZM4.32538 9.12337C4.32558 9.27577 4.29504 9.42664 4.23559 9.56696C4.17614 9.70728 4.089 9.83417 3.97938 9.94004C3.75759 10.1508 3.46333 10.2683 3.15738 10.2683C2.85144 10.2683 2.55717 10.1508 2.33538 9.94004C2.22728 9.83217 2.14167 9.7039 2.08354 9.56268C2.0254 9.42145 1.99589 9.27009 1.99672 9.11737C1.99359 8.95968 2.02546 8.80326 2.09005 8.65937C2.17805 8.45071 2.32938 8.27471 2.52205 8.15471C2.71911 8.02446 2.95123 7.95747 3.18738 7.96271C3.41272 7.96271 3.63272 8.02937 3.81938 8.15471C4.01072 8.27671 4.16138 8.45204 4.25272 8.65937C4.31805 8.80271 4.35272 8.95937 4.35205 9.11737L4.32538 9.12337ZM6.48805 5.80604H3.16138C2.98526 5.80587 2.81637 5.73601 2.69158 5.61172C2.5668 5.48744 2.49626 5.31882 2.49538 5.14271C2.49521 5.05535 2.51231 4.96881 2.5457 4.88809C2.57909 4.80736 2.62811 4.73403 2.68994 4.67232C2.75178 4.61061 2.8252 4.56174 2.906 4.52851C2.98679 4.49528 3.07336 4.47835 3.16072 4.47871H6.48805C6.66417 4.47906 6.83299 4.54908 6.95765 4.67349C7.08231 4.7979 7.15268 4.96659 7.15338 5.14271C7.15347 5.23001 7.13631 5.31647 7.10288 5.39712C7.06945 5.47777 7.02041 5.55102 6.95859 5.61266C6.89676 5.6743 6.82337 5.72312 6.74262 5.7563C6.66187 5.78949 6.57535 5.80639 6.48805 5.80604ZM6.48805 3.52337H3.16138C2.98526 3.5232 2.81637 3.45334 2.69158 3.32906C2.5668 3.20477 2.49626 3.03616 2.49538 2.86004C2.4953 2.77274 2.51246 2.68628 2.54589 2.60563C2.57932 2.52498 2.62835 2.45173 2.69018 2.39009C2.75201 2.32845 2.8254 2.27963 2.90615 2.24644C2.9869 2.21326 3.07341 2.19636 3.16072 2.19671H6.48805C6.66405 2.19706 6.83278 2.26699 6.95742 2.39126C7.08206 2.51552 7.1525 2.68404 7.15338 2.86004C7.15347 2.94734 7.13631 3.0338 7.10288 3.11445C7.06945 3.1951 7.02041 3.26835 6.95859 3.32999C6.89676 3.39163 6.82337 3.44045 6.74262 3.47364C6.66187 3.50682 6.57535 3.52372 6.48805 3.52337ZM12.3107 9.12337C12.3108 9.27582 12.2802 9.42672 12.2206 9.56704C12.1611 9.70736 12.0738 9.83423 11.9641 9.94004C11.7423 10.1506 11.4482 10.268 11.1424 10.268C10.8366 10.268 10.5425 10.1506 10.3207 9.94004C10.2125 9.83222 10.1268 9.70398 10.0685 9.56275C10.0103 9.42153 9.98064 9.27014 9.98138 9.11737C9.97856 8.87564 10.0559 8.63979 10.2014 8.44671C10.3654 8.22871 10.6007 8.07337 10.8667 8.00871H11.0334C11.0638 8.00145 11.0956 8.00145 11.1261 8.00871H11.2594C11.4614 8.03204 11.6541 8.10737 11.8181 8.22804C11.9827 8.34871 12.1114 8.51137 12.1907 8.69937C12.2567 8.84271 12.2907 8.99937 12.2907 9.15671L12.3107 9.12337Z" fill="#515151"/>
</svg>
